<?xml version="1.0" standalone="no"?><!DOCTYPE svg PUBLIC "-//W3C//DTD SVG 1.1//EN" "http://www.w3.org/Graphics/SVG/1.1/DTD/svg11.dtd"><svg xmlns="http://www.w3.org/2000/svg" version="1.1" width="836.303" height="1029.479" xmlns:xlink="http://www.w3.org/1999/xlink" xlink="http://www.w3.org/1999/xlink" style="position:relative;overflow:hidden;" viewBox="31.197 35.5 836.303 1029.479"><defs><filter id="eddbed13-cdfa-4993-873c-ee85fb812dc4" x="-0.5" y="-0.5" width="2" height="2"><feFlood flood-color="#000" flood-opacity="0.6" result="flood"/><feComposite in="flood" in2="SourceAlpha" operator="in" result="mask"/><feGaussianBlur in="mask" stdDeviation="2"/><feOffset dx="1.25" dy="1.25" result="oEffect0"/><feMerge><feMergeNode in="oEffect0"/><feMergeNode in="SourceGraphic"/></feMerge></filter><filter id="88223480-3596-424c-845f-b331bd98bbf3" x="-0.5" y="-0.5" width="2" height="2"><feMerge><feMergeNode in="SourceGraphic"/></feMerge></filter></defs><g><g width="213.606" height="25" transform="scale(1,1) translate(43.197,62.333)"><g stroke="#7F7F7F" opacity="1" stroke-width="0" stroke-dasharray="none" width="213.606" height="25" transform="scale(1,1) translate(0,0)" fill="none" stroke-opacity="1"><rect width="213.606" height="25"/></g><g width="213.60574340820312" height="24.999998092651367" transform="scale(1,1) translate(0,0)"><text width="213.60574340820312" height="24.999998092651367" transform="scale(1,1) translate(0,0)" xml:space="preserve"><tspan xml:space="preserve" text-rendering="optimizeSpeed" font-size="22.22222222222222" font-weight="bold" font-style="normal" fill="#333333" opacity="1" x="0" text-anchor="start" y="19.792" textLength="213.60574340820312" style="font-family: Arial, Helvetica Neue, Helvetica, sans-serif;">Food Order Process</tspan></text></g></g><g width="0" height="754" transform="scale(1,1) translate(541.667,48)"><g fill="#545454" stroke="#545454" stroke-opacity="1" transform="scale(1,1) translate(0,0)"><path fill="none" stroke-width="1" stroke-dasharray="none" d="M0,0 L0,0 M0,0 L0,0 M0,754 L0,754 M0,0 L0,0 M0,76.667 L0,116.667 M0,202.667 L0,242.667 M0,353.667 L0,393.667 M0,477 L0,517 M0,628 L0,668"/><g><g stroke-dasharray="none"><path d="M5,116.667L0,126.667L-5,116.667z" stroke="none" fill-opacity="1"/></g><g stroke-dasharray="none"><path d="M5,242.667L0,252.667L-5,242.667z" stroke="none" fill-opacity="1"/></g><g stroke-dasharray="none"><path d="M5,393.667L0,403.667L-5,393.667z" stroke="none" fill-opacity="1"/></g><g stroke-dasharray="none"><path d="M5,517L0,527L-5,517z" stroke="none" fill-opacity="1"/></g><g stroke-dasharray="none"><path d="M5,668L0,678L-5,668z" stroke="none" fill-opacity="1"/></g></g></g><g stroke-width="0" stroke-dasharray="none" fill="#FFFFFF" opacity="0" width="24.652" height="17.625" transform="scale(1,1) translate(-13.326,483.875)"><rect width="24.652" height="17.625"/></g><g width="22.65191078186035" height="50" transform="scale(1,1) translate(-12.326,484.875)"><text width="22.65191078186035" height="15.624999046325684" transform="scale(1,1) translate(0,0)" xml:space="preserve"><tspan xml:space="preserve" text-rendering="optimizeSpeed" font-size="13.88888888888889" font-weight="normal" font-style="normal" fill="#000000" opacity="1" x="0" text-anchor="start" y="12.5" textLength="22.65191078186035" style="font-family: Arial, Helvetica Neue, Helvetica, sans-serif;">Yes</tspan></text></g><g stroke-width="0" stroke-dasharray="none" fill="#FFFFFF" opacity="0" width="24.652" height="17.625" transform="scale(1,1) translate(-13.326,634.875)"><rect width="24.652" height="17.625"/></g><g width="22.65191078186035" height="50" transform="scale(1,1) translate(-12.326,635.875)"><text width="22.65191078186035" height="15.624999046325684" transform="scale(1,1) translate(0,0)" xml:space="preserve"><tspan xml:space="preserve" text-rendering="optimizeSpeed" font-size="13.88888888888889" font-weight="normal" font-style="normal" fill="#000000" opacity="1" x="0" text-anchor="start" y="12.5" textLength="22.65191078186035" style="font-family: Arial, Helvetica Neue, Helvetica, sans-serif;">Yes</tspan></text></g></g><g width="200" height="100" transform="scale(1,1) translate(441.667,300.667)"><g transform="scale(1,1) translate(0,0)" stroke="#7F7F7F" fill="url(#316dd412-79d2-435a-81da-6fc503f5d095)" stroke-opacity="1" filter="url(#eddbed13-cdfa-4993-873c-ee85fb812dc4)"><linearGradient id="316dd412-79d2-435a-81da-6fc503f5d095" x1="100" y1="0" x2="100" y2="100" gradientUnits="userSpaceOnUse"><stop offset="0%" style="stop-color:#CDC29C;stop-opacity:1;"/><stop offset="100%" style="stop-color:#CBBB85;stop-opacity:1;"/></linearGradient><path d="M100,0 L200,50 L100,100 L0,50 L100,0 z" stroke-width="1" stroke-dasharray="none"/></g><g width="95.5" height="45.5" transform="scale(1,1) translate(52.25,27.25)"><text width="95.5" height="15.624999046325684" transform="scale(1,1) translate(0,14.937500476837158)" xml:space="preserve"><tspan xml:space="preserve" text-rendering="optimizeSpeed" font-size="13.88888888888889" font-weight="normal" font-style="normal" fill="#333333" opacity="1" x="15.721" text-anchor="start" y="12.5" textLength="64.05723571777344" style="font-family: Arial, Helvetica Neue, Helvetica, sans-serif;">Success ?</tspan></text></g></g><g width="150.167" height="72.333" transform="scale(1,1) translate(466.667,451.667)"><g stroke="#7F7F7F" opacity="1" stroke-width="1" stroke-dasharray="none" width="150.167" height="72.333" transform="scale(1,1) translate(0,0)" fill="url(#b305aefb-6888-402e-8dd2-ba691b3be5f7)" stroke-opacity="1" filter="url(#eddbed13-cdfa-4993-873c-ee85fb812dc4)"><linearGradient id="b305aefb-6888-402e-8dd2-ba691b3be5f7" x1="75.0835" y1="0" x2="75.0835" y2="72.333" gradientUnits="userSpaceOnUse"><stop offset="0%" style="stop-color:#C4D5E6;stop-opacity:1;"/><stop offset="100%" style="stop-color:#B6CDE4;stop-opacity:1;"/></linearGradient><rect width="150.167" height="72.333"/></g><g width="145.16666666666669" height="67.33333333333337" transform="scale(1,1) translate(2.5,2.5)"><text width="145.16666666666669" height="15.624999046325684" transform="scale(1,1) translate(0,25.854167143503844)" xml:space="preserve"><tspan xml:space="preserve" text-rendering="optimizeSpeed" font-size="13.88888888888889" font-weight="normal" font-style="normal" fill="#333333" opacity="1" x="36.31" text-anchor="start" y="12.5" textLength="72.54576873779297" style="font-family: Arial, Helvetica Neue, Helvetica, sans-serif;">Order Code</tspan></text></g></g><g width="151.333" height="75.667" transform="scale(1,1) translate(466,48)"><g transform="scale(1,1) translate(0,0)" stroke="#7F7F7F" fill="url(#d824aea2-2779-4ca9-860e-ab0dfbc15577)" stroke-opacity="1" filter="url(#eddbed13-cdfa-4993-873c-ee85fb812dc4)"><linearGradient id="d824aea2-2779-4ca9-860e-ab0dfbc15577" x1="75.66666666666666" y1="0" x2="75.66666666666666" y2="75.66666666666666" gradientUnits="userSpaceOnUse"><stop offset="0%" style="stop-color:#92B0CF;stop-opacity:1;"/><stop offset="100%" style="stop-color:#8CA8CD;stop-opacity:1;"/></linearGradient><path d="M37,0 L28.675,0.949 L25.303,1.897 L22.769,2.846 L20.678,3.795 L18.875,4.744 L17.281,5.692 L15.85,6.641 L14.549,7.59 L13.358,8.538 L12.26,9.487 L11.244,10.436 L10.301,11.385 L9.422,12.333 L8.602,13.282 L7.836,14.231 L7.119,15.179 L6.449,16.128 L5.822,17.077 L5.236,18.026 L4.688,18.974 L4.177,19.923 L3.7,20.872 L3.257,21.821 L2.846,22.769 L2.466,23.718 L2.116,24.667 L1.795,25.615 L1.502,26.564 L1.237,27.513 L0.999,28.462 L0.787,29.41 L0.601,30.359 L0.44,31.308 L0.305,32.256 L0.195,33.205 L0.11,34.154 L0.049,35.103 L0.012,36.051 L0,37 L0,38.667 L0.012,39.615 L0.049,40.564 L0.11,41.513 L0.195,42.462 L0.305,43.41 L0.44,44.359 L0.601,45.308 L0.787,46.256 L0.999,47.205 L1.237,48.154 L1.502,49.103 L1.795,50.051 L2.116,51 L2.466,51.949 L2.846,52.897 L3.257,53.846 L3.7,54.795 L4.177,55.744 L4.688,56.692 L5.236,57.641 L5.822,58.59 L6.449,59.538 L7.119,60.487 L7.836,61.436 L8.602,62.385 L9.422,63.333 L10.301,64.282 L11.244,65.231 L12.26,66.179 L13.358,67.128 L14.549,68.077 L15.85,69.026 L17.281,69.974 L18.875,70.923 L20.678,71.872 L22.769,72.821 L25.303,73.769 L28.675,74.718 L37,75.667 L114.333,75.667 L122.658,74.718 L126.03,73.769 L128.564,72.821 L130.656,71.872 L132.459,70.923 L134.052,69.974 L135.484,69.026 L136.784,68.077 L137.975,67.128 L139.073,66.179 L140.089,65.231 L141.033,64.282 L141.912,63.333 L142.732,62.385 L143.498,61.436 L144.214,60.487 L144.884,59.538 L145.511,58.59 L146.098,57.641 L146.646,56.692 L147.157,55.744 L147.633,54.795 L148.076,53.846 L148.487,52.897 L148.867,51.949 L149.217,51 L149.538,50.051 L149.831,49.103 L150.096,48.154 L150.335,47.205 L150.547,46.256 L150.732,45.308 L150.893,44.359 L151.028,43.41 L151.138,42.462 L151.224,41.513 L151.285,40.564 L151.321,39.615 L151.333,38.667 L151.333,37 L151.321,36.051 L151.285,35.103 L151.224,34.154 L151.138,33.205 L151.028,32.256 L150.893,31.308 L150.732,30.359 L150.547,29.41 L150.335,28.462 L150.096,27.513 L149.831,26.564 L149.538,25.615 L149.217,24.667 L148.867,23.718 L148.487,22.769 L148.076,21.821 L147.633,20.872 L147.157,19.923 L146.646,18.974 L146.098,18.026 L145.511,17.077 L144.884,16.128 L144.214,15.179 L143.498,14.231 L142.732,13.282 L141.912,12.333 L141.033,11.385 L140.089,10.436 L139.073,9.487 L137.975,8.538 L136.784,7.59 L135.484,6.641 L134.052,5.692 L132.459,4.744 L130.656,3.795 L128.564,2.846 L126.03,1.897 L122.658,0.949 L114.333,0 L37,0 z" stroke-width="1" stroke-dasharray="none"/></g><g width="102.30171956066665" height="48.79730638933333" transform="scale(1,1) translate(24.516,13.435)"><text width="102.30171956066665" height="15.624999046325684" transform="scale(1,1) translate(0,16.586153671503823)" xml:space="preserve"><tspan xml:space="preserve" text-rendering="optimizeSpeed" font-size="13.88888888888889" font-weight="normal" font-style="normal" fill="#333333" opacity="1" x="6.396" text-anchor="start" y="12.5" textLength="89.50926208496094" style="font-family: Arial, Helvetica Neue, Helvetica, sans-serif;">Order Process</tspan></text></g></g><g width="220.333" height="0" transform="scale(1,1) translate(641.667,350.667)"><g fill="#545454" stroke="#545454" stroke-opacity="1" transform="scale(1,1) translate(0,0)"><path fill="none" stroke-width="1" stroke-dasharray="none" d="M68.833,0 L68.833,0 M0,0 L68.833,0 M220.333,0 L220.333,0 M68.833,0 L68.833,0"/><g><g stroke-dasharray="none"><path d="M68.833,5L58.833,0L68.833,-5z" stroke="none" fill-opacity="1"/></g></g></g><g stroke-width="0" stroke-dasharray="none" fill="#FFFFFF" opacity="1" width="22.828" height="17.625" transform="scale(1,1) translate(23.003,-8.812)"><rect width="22.828" height="17.625"/></g><g width="20.8281192779541" height="40" transform="scale(1,1) translate(24.003,-7.812)"><text width="20.8281192779541" height="15.624999046325684" transform="scale(1,1) translate(0,0)" xml:space="preserve"><tspan xml:space="preserve" text-rendering="optimizeSpeed" font-size="13.88888888888889" font-weight="normal" font-style="normal" fill="#333333" opacity="1" x="0" text-anchor="start" y="12.5" textLength="20.8281192779541" style="font-family: Arial, Helvetica Neue, Helvetica, sans-serif;">NO</tspan></text></g></g><g width="92.333" height="21" transform="scale(1,1) translate(420,934.833)"><g stroke="#7F7F7F" opacity="1" stroke-width="0" stroke-dasharray="none" width="92.333" height="21" transform="scale(1,1) translate(0,0)" fill="none" stroke-opacity="1"><rect width="92.333" height="21"/></g><g width="92.33333333333333" height="21" transform="scale(1,1) translate(0,0)"><text width="92.33333333333333" height="15.624999046325684" transform="scale(1,1) translate(0,2.687500476837158)" xml:space="preserve"><tspan xml:space="preserve" text-rendering="optimizeSpeed" font-size="13.88888888888889" font-weight="normal" font-style="normal" fill="#333333" opacity="1" x="0" text-anchor="start" y="12.5" textLength="77.94938659667969" style="font-family: Arial, Helvetica Neue, Helvetica, sans-serif;">To Controller</tspan></text></g></g><g width="150" height="66.667" transform="rotate(360,785.5,352.292) scale(1,1) translate(710.5,318.958)"><g stroke="#7F7F7F" opacity="1" stroke-width="1" stroke-dasharray="none" width="150" height="66.667" transform="scale(1,1) translate(0,0)" fill="url(#94cc5570-12bf-4841-856e-27e1ce59b38b)" stroke-opacity="1" filter="url(#88223480-3596-424c-845f-b331bd98bbf3)"><linearGradient id="94cc5570-12bf-4841-856e-27e1ce59b38b" x1="75" y1="0" x2="75" y2="66.667" gradientUnits="userSpaceOnUse"><stop offset="0%" style="stop-color:#C4D5E6;stop-opacity:1;"/><stop offset="100%" style="stop-color:#B6CDE4;stop-opacity:1;"/></linearGradient><rect width="150" height="66.667"/></g><g width="145" height="61.666666666666686" transform="scale(1,1) translate(2.5,2.5)"><text width="145" height="15.624999046325684" transform="scale(1,1) translate(0,23.0208338101705)" xml:space="preserve"><tspan xml:space="preserve" text-rendering="optimizeSpeed" font-size="13.88888888888889" font-weight="normal" font-style="normal" fill="#333333" opacity="1" x="33.532" text-anchor="start" y="12.5" textLength="77.93583679199219" style="font-family: Arial, Helvetica Neue, Helvetica, sans-serif;">Back to form</tspan></text></g></g><g width="178.833" height="106.792" transform="scale(1,1) translate(606.667,212.167)"><g transform="scale(1,1) translate(0,0)" fill="#545454" stroke="#545454" stroke-opacity="1"><path d="M 178.833 106.792 L 178.833 0 L 10 0" fill="none" stroke-width="1" stroke-dasharray="none"/><g><g stroke-dasharray="none"><path d="M10,5L0,0L10,-5z" stroke="none" fill-opacity="1"/></g></g></g></g><g width="150" height="75" transform="scale(1,1) translate(466.667,174.667)"><g transform="scale(1,1) translate(0,0)" stroke="#7F7F7F" fill="url(#57dcd494-fe33-4ed1-82fd-9e01ad1bec7b)" stroke-opacity="1" filter="url(#88223480-3596-424c-845f-b331bd98bbf3)"><linearGradient id="57dcd494-fe33-4ed1-82fd-9e01ad1bec7b" x1="75" y1="0" x2="75" y2="75" gradientUnits="userSpaceOnUse"><stop offset="0%" style="stop-color:#C4D5E6;stop-opacity:1;"/><stop offset="100%" style="stop-color:#B6CDE4;stop-opacity:1;"/></linearGradient><path d="M20,0 L150,0 L130,75 L0,75 L20,0 z" stroke-width="1" stroke-dasharray="none"/></g><g width="109.87229862475442" height="52.55402750491159" transform="scale(1,1) translate(20.064,11.223)"><text width="109.87229862475442" height="31.249998092651367" transform="scale(1,1) translate(0,10.65201470613011)" xml:space="preserve"><tspan xml:space="preserve" text-rendering="optimizeSpeed" font-size="13.88888888888889" font-weight="normal" font-style="normal" fill="#333333" opacity="1" x="3.618" text-anchor="start" y="12.5" textLength="98.77750396728516" style="font-family: Arial, Helvetica Neue, Helvetica, sans-serif;">Complete Order</tspan><tspan xml:space="preserve" text-rendering="optimizeSpeed" font-size="13.88888888888889" font-weight="normal" font-style="normal" fill="#333333" opacity="1" x="38.739" text-anchor="start" y="28.125" textLength="32.394752502441406" style="font-family: Arial, Helvetica Neue, Helvetica, sans-serif;">Form</tspan></text></g></g><g width="200" height="100" transform="scale(1,1) translate(441.667,575)"><g transform="scale(1,1) translate(0,0)" stroke="#7F7F7F" fill="url(#67ad2be3-a255-4176-8986-99b91c84a23c)" stroke-opacity="1" filter="url(#eddbed13-cdfa-4993-873c-ee85fb812dc4)"><linearGradient id="67ad2be3-a255-4176-8986-99b91c84a23c" x1="100" y1="0" x2="100" y2="100" gradientUnits="userSpaceOnUse"><stop offset="0%" style="stop-color:#CDC29C;stop-opacity:1;"/><stop offset="100%" style="stop-color:#CBBB85;stop-opacity:1;"/></linearGradient><path d="M100,0 L200,50 L100,100 L0,50 L100,0 z" stroke-width="1" stroke-dasharray="none"/></g><g width="95.5" height="45.5" transform="scale(1,1) translate(52.25,27.25)"><text width="95.5" height="15.624999046325684" transform="scale(1,1) translate(0,14.937500476837158)" xml:space="preserve"><tspan xml:space="preserve" text-rendering="optimizeSpeed" font-size="13.88888888888889" font-weight="normal" font-style="normal" fill="#333333" opacity="1" x="10.44" text-anchor="start" y="12.5" textLength="74.62042236328125" style="font-family: Arial, Helvetica Neue, Helvetica, sans-serif;">Valid Code?</tspan></text></g></g><g width="25" height="155.25" transform="scale(1,1) translate(441.667,469.75)"><g transform="scale(1,1) translate(0,0)" fill="#545454" stroke="#545454" stroke-opacity="1"><path d="M 0 155.25 L -20 155.25 L -20 0 L 15 0" fill="none" stroke-width="1" stroke-dasharray="none"/><g><g stroke-dasharray="none"><path d="M15,-5L25,0L15,5z" stroke="none" fill-opacity="1"/></g></g></g><g stroke-width="0" stroke-dasharray="none" fill="#FFFFFF" opacity="1" width="19.75" height="17.625" transform="scale(1,1) translate(-29.875,68.813)"><rect width="19.75" height="17.625"/></g><g width="17.74999237060547" height="155.25000003973634" transform="scale(1,1) translate(-28.875,69.813)"><text width="17.74999237060547" height="15.624999046325684" transform="scale(1,1) translate(0,0)" xml:space="preserve"><tspan xml:space="preserve" text-rendering="optimizeSpeed" font-size="13.88888888888889" font-weight="normal" font-style="normal" fill="#333333" opacity="1" x="0" text-anchor="start" y="12.5" textLength="17.74999237060547" style="font-family: Arial, Helvetica Neue, Helvetica, sans-serif;">No</tspan></text></g></g><g width="150" height="75" transform="scale(1,1) translate(466.667,726)"><g stroke="#7F7F7F" opacity="1" stroke-width="1" stroke-dasharray="none" width="150" height="75" transform="scale(1,1) translate(0,0)" fill="url(#853a157c-f60a-4b48-8bdd-0dd68d0b2c6e)" stroke-opacity="1" filter="url(#88223480-3596-424c-845f-b331bd98bbf3)"><linearGradient id="853a157c-f60a-4b48-8bdd-0dd68d0b2c6e" x1="75" y1="0" x2="75" y2="75" gradientUnits="userSpaceOnUse"><stop offset="0%" style="stop-color:#C4D5E6;stop-opacity:1;"/><stop offset="100%" style="stop-color:#B6CDE4;stop-opacity:1;"/></linearGradient><rect width="150" height="75"/></g><g width="145" height="70" transform="scale(1,1) translate(2.5,2.5)"><text width="145" height="15.624999046325684" transform="scale(1,1) translate(0,27.187500476837158)" xml:space="preserve"><tspan xml:space="preserve" text-rendering="optimizeSpeed" font-size="13.88888888888889" font-weight="normal" font-style="normal" fill="#333333" opacity="1" x="1.49" text-anchor="start" y="12.5" textLength="142.02017211914062" style="font-family: Arial, Helvetica Neue, Helvetica, sans-serif;">Notification  Generated</tspan></text></g></g><g width="10" height="570.083" transform="scale(1,1) translate(466.667,212.167)"><g transform="scale(1,1) translate(0,0)" fill="#545454" stroke="#545454" stroke-opacity="1"><path d="M 0 570.083 L -25 570.083 L -25 0 L 0 0" fill="none" stroke-width="1" stroke-dasharray="none"/><g><g stroke-dasharray="none"><path d="M0,-5L10,0L0,5z" stroke="none" fill-opacity="1"/></g></g></g><g stroke-width="0" stroke-dasharray="none" fill="#FFFFFF" opacity="1" width="19.75" height="17.625" transform="scale(1,1) translate(-34.875,276.229)"><rect width="19.75" height="17.625"/></g><g width="17.74999237060547" height="570.0833333333333" transform="scale(1,1) translate(-33.875,277.229)"><text width="17.74999237060547" height="15.624999046325684" transform="scale(1,1) translate(0,0)" xml:space="preserve"><tspan xml:space="preserve" text-rendering="optimizeSpeed" font-size="13.88888888888889" font-weight="normal" font-style="normal" fill="#333333" opacity="1" x="0" text-anchor="start" y="12.5" textLength="17.74999237060547" style="font-family: Arial, Helvetica Neue, Helvetica, sans-serif;">No</tspan></text></g></g></g></svg>